<?xml version="1.0" encoding="UTF-8"?>
<svg width="24" height="24" viewBox="0 0 24 24" fill="none" xmlns="http://www.w3.org/2000/svg">
    <path d="M4 10H15C16.66 10 18 8.66 18 7C18 5.34 16.66 4 15 4C13.34 4 12 5.34 12 7H14C14 6.45 14.45 6 15 6C15.55 6 16 6.45 16 7C16 7.55 15.55 8 15 8H4V10Z" fill="#666666"/>
    <path d="M4 14H19C20.66 14 22 12.66 22 11C22 9.34 20.66 8 19 8C17.34 8 16 9.34 16 11H18C18 10.45 18.45 10 19 10C19.55 10 20 10.45 20 11C20 11.55 19.55 12 19 12H4V14Z" fill="#666666"/>
    <path d="M4 18H13C14.66 18 16 16.66 16 15C16 13.34 14.66 12 13 12C11.34 12 10 13.34 10 15H12C12 14.45 12.45 14 13 14C13.55 14 14 14.45 14 15C14 15.55 13.55 16 13 16H4V18Z" fill="#666666"/>
</svg> 