<svg t="1709701185671" class="icon" viewBox="0 0 1024 1024" version="1.1" xmlns="http://www.w3.org/2000/svg" p-id="6725" width="200" height="200">
  <path d="M810.666667 298.666667h-170.666667V213.333333c0-47.146667-38.186667-85.333333-85.333333-85.333333h-85.333334c-47.146667 0-85.333333 38.186667-85.333333 85.333333v85.333334H213.333333c-47.146667 0-85.333333 38.186667-85.333333 85.333333v469.333333c0 47.146667 38.186667 85.333333 85.333333 85.333334h597.333334c47.146667 0 85.333333-38.186667 85.333333-85.333334V384c0-47.146667-38.186667-85.333333-85.333333-85.333333zM426.666667 213.333333c0-23.573333 19.093333-42.666667 42.666666-42.666666h85.333334c23.573333 0 42.666667 19.093333 42.666666 42.666666v85.333334H426.666667V213.333333z m426.666666 640c0 23.573333-19.093333 42.666667-42.666666 42.666667H213.333333c-23.573333 0-42.666667-19.093333-42.666666-42.666667V384c0-23.573333 19.093333-42.666667 42.666666-42.666667h597.333334c23.573333 0 42.666667 19.093333 42.666666 42.666667v469.333333z" fill="#07C160" p-id="6726"></path>
  <path d="M512 469.333333c-70.72 0-128 57.28-128 128s57.28 128 128 128 128-57.28 128-128-57.28-128-128-128z m0 213.333334c-47.146667 0-85.333333-38.186667-85.333333-85.333334s38.186667-85.333333 85.333333-85.333333 85.333333 38.186667 85.333333 85.333333-38.186667 85.333333-85.333333 85.333334z" fill="#07C160" p-id="6727"></path>
</svg> 